<?xml version="1.0" encoding="UTF-8" standalone="no"?>
<svg
   width="24"
   height="24"
   viewBox="0 0 24 24"
   fill="none"
   stroke="currentColor"
   stroke-width="2"
   stroke-linecap="round"
   stroke-linejoin="round"
   class="feather feather-package"
   version="1.1"
   id="svg94"
   sodipodi:docname="logo_devel.svg"
   inkscape:version="1.2.2 (b0a8486541, 2022-12-01)"
   xmlns:inkscape="http://www.inkscape.org/namespaces/inkscape"
   xmlns:sodipodi="http://sodipodi.sourceforge.net/DTD/sodipodi-0.dtd"
   xmlns="http://www.w3.org/2000/svg"
   xmlns:svg="http://www.w3.org/2000/svg">
  <defs
     id="defs98" />
  <sodipodi:namedview
     id="namedview96"
     pagecolor="#505050"
     bordercolor="#ffffff"
     borderopacity="1"
     inkscape:showpageshadow="0"
     inkscape:pageopacity="0"
     inkscape:pagecheckerboard="1"
     inkscape:deskcolor="#505050"
     showgrid="false"
     inkscape:zoom="23.835391"
     inkscape:cx="2.894855"
     inkscape:cy="12.145805"
     inkscape:window-width="1920"
     inkscape:window-height="1018"
     inkscape:window-x="0"
     inkscape:window-y="0"
     inkscape:window-maximized="1"
     inkscape:current-layer="svg94" />
  <circle
     style="fill:#0366d6;fill-opacity:1;stroke-width:0;stroke-dasharray:none"
     id="path1097-6"
     cx="4.1179571"
     cy="4.3046713"
     r="3.5186205" />
  <path
     id="path1097-6-3"
     style="fill:#181818;fill-opacity:1;stroke-width:0;stroke-dasharray:none"
     d="m 4.4898099,8.9412119 a 3.5186205,3.5186205 0 0 0 -0.5,0.03516 3.5186205,3.5186205 0 0 0 -0.4902344,0.107422 3.5186205,3.5186205 0 0 0 -0.4707032,0.175781 3.5186205,3.5186205 0 0 0 -0.4414062,0.240234 3.5186205,3.5186205 0 0 0 -0.4023438,0.300782 3.5186205,3.5186205 0 0 0 -0.3535156,0.3554681 3.5186205,3.5186205 0 0 0 -0.3007812,0.400391 3.5186205,3.5186205 0 0 0 -0.2421875,0.441406 3.5186205,3.5186205 0 0 0 -0.1738281,0.470703 3.5186205,3.5186205 0 0 0 -0.1074219,0.490234 3.5186205,3.5186205 0 0 0 -0.035156,0.5 3.5186205,3.5186205 0 0 0 0.035156,0.501953 3.5186205,3.5186205 0 0 0 0.1074219,0.490235 3.5186205,3.5186205 0 0 0 0.1738281,0.470703 3.5186205,3.5186205 0 0 0 0.2421875,0.439453 3.5186205,3.5186205 0 0 0 0.3007812,0.402344 3.5186205,3.5186205 0 0 0 0.3535156,0.355469 3.5186205,3.5186205 0 0 0 0.4023438,0.300781 3.5186205,3.5186205 0 0 0 0.4414062,0.240234 3.5186205,3.5186205 0 0 0 0.4707032,0.175781 3.5186205,3.5186205 0 0 0 0.4902344,0.107422 3.5186205,3.5186205 0 0 0 0.5,0.03516 3.5186205,3.5186205 0 0 0 0.5019531,-0.03516 3.5186205,3.5186205 0 0 0 0.4902343,-0.107422 3.5186205,3.5186205 0 0 0 0.4707032,-0.175781 3.5186205,3.5186205 0 0 0 0.4394531,-0.240234 3.5186205,3.5186205 0 0 0 0.4023437,-0.300781 3.5186205,3.5186205 0 0 0 0.3554688,-0.355469 3.5186205,3.5186205 0 0 0 0.3007812,-0.402344 3.5186205,3.5186205 0 0 0 0.2402343,-0.439453 3.5186205,3.5186205 0 0 0 0.175781,-0.470703 3.5186205,3.5186205 0 0 0 0.105469,-0.490235 3.5186205,3.5186205 0 0 0 0.03711,-0.501953 3.5186205,3.5186205 0 0 0 -0.0039,-0.171875 3.5186205,3.5186205 0 0 0 -0.01367,-0.171875 3.5186205,3.5186205 0 0 0 -0.02148,-0.171875 3.5186205,3.5186205 0 0 0 -0.0293,-0.169922 3.5186205,3.5186205 0 0 0 -0.03711,-0.167968 3.5186205,3.5186205 0 0 0 -0.04687,-0.167969 3.5186205,3.5186205 0 0 0 -0.05469,-0.164063 3.5186205,3.5186205 0 0 0 -0.06055,-0.160156 3.5186205,3.5186205 0 0 0 -0.07031,-0.158203 A 3.5186205,3.5186205 0 0 0 7.5933366,10.80059 3.5186205,3.5186205 0 0 0 7.5073996,10.6502 3.5186205,3.5186205 0 0 0 7.4156026,10.505668 3.5186205,3.5186205 0 0 0 7.3159936,10.36309 3.5186205,3.5186205 0 0 0 7.2105249,10.228324 3.5186205,3.5186205 0 0 0 7.0972436,10.097465 3.5186205,3.5186205 0 0 0 6.978103,9.9724649 a 3.5186205,3.5186205 0 0 0 -0.125,-0.119141 3.5186205,3.5186205 0 0 0 -0.1308594,-0.11328 3.5186205,3.5186205 0 0 0 -0.1367187,-0.107422 3.5186205,3.5186205 0 0 0 -0.140625,-0.09961 3.5186205,3.5186205 0 0 0 -0.1464844,-0.0918 3.5186205,3.5186205 0 0 0 -0.1503906,-0.08398 3.5186205,3.5186205 0 0 0 -0.1542969,-0.07813 3.5186205,3.5186205 0 0 0 -0.15625,-0.07031 3.5186205,3.5186205 0 0 0 -0.1621094,-0.0625 3.5186205,3.5186205 0 0 0 -0.1640625,-0.05469 3.5186205,3.5186205 0 0 0 -0.1660156,-0.04492 3.5186205,3.5186205 0 0 0 -0.1679687,-0.03906 3.5186205,3.5186205 0 0 0 -0.171875,-0.0293 3.5186205,3.5186205 0 0 0 -0.1699219,-0.01953 3.5186205,3.5186205 0 0 0 -0.171875,-0.01367 3.5186205,3.5186205 0 0 0 -0.1738281,-0.0039 z" />
  <path
     id="path1772"
     style="fill:#000000;fill-opacity:1;stroke-width:0;stroke-dasharray:none"
     d="M 4.4898108,8.3845761 A 3.9970775,4.0754333 0 0 0 0.49371697,12.458794 3.9970775,4.0754333 0 0 0 4.4898108,16.534966 3.9970775,4.0754333 0 0 0 8.4878573,12.458794 3.9970775,4.0754333 0 0 0 4.4898108,8.3845761 Z m 0,0.5566406 a 3.5186205,3.5186205 0 0 1 0.1738281,0.00391 3.5186205,3.5186205 0 0 1 0.171875,0.013672 3.5186205,3.5186205 0 0 1 0.1699219,0.019531 3.5186205,3.5186205 0 0 1 0.171875,0.029297 3.5186205,3.5186205 0 0 1 0.1679685,0.039063 3.5186205,3.5186205 0 0 1 0.166016,0.044922 3.5186205,3.5186205 0 0 1 0.164062,0.054687 3.5186205,3.5186205 0 0 1 0.16211,0.0625 3.5186205,3.5186205 0 0 1 0.15625,0.070313 3.5186205,3.5186205 0 0 1 0.154297,0.078125 3.5186205,3.5186205 0 0 1 0.15039,0.083984 3.5186205,3.5186205 0 0 1 0.146485,0.091797 3.5186205,3.5186205 0 0 1 0.140625,0.099609 3.5186205,3.5186205 0 0 1 0.136718,0.1074218 3.5186205,3.5186205 0 0 1 0.13086,0.1132808 3.5186205,3.5186205 0 0 1 0.125,0.119141 3.5186205,3.5186205 0 0 1 0.11914,0.1249997 3.5186205,3.5186205 0 0 1 0.113282,0.130859 3.5186205,3.5186205 0 0 1 0.105468,0.134766 3.5186205,3.5186205 0 0 1 0.09961,0.142578 3.5186205,3.5186205 0 0 1 0.0918,0.144532 3.5186205,3.5186205 0 0 1 0.08594,0.15039 3.5186205,3.5186205 0 0 1 0.07813,0.154297 3.5186205,3.5186205 0 0 1 0.07031,0.158203 3.5186205,3.5186205 0 0 1 0.06055,0.160156 3.5186205,3.5186205 0 0 1 0.05469,0.164063 3.5186205,3.5186205 0 0 1 0.04687,0.167969 3.5186205,3.5186205 0 0 1 0.03711,0.167968 3.5186205,3.5186205 0 0 1 0.0293,0.169922 3.5186205,3.5186205 0 0 1 0.02149,0.171875 3.5186205,3.5186205 0 0 1 0.01367,0.171875 3.5186205,3.5186205 0 0 1 0.0039,0.171875 3.5186205,3.5186205 0 0 1 -0.03711,0.501953 3.5186205,3.5186205 0 0 1 -0.105468,0.490235 3.5186205,3.5186205 0 0 1 -0.175782,0.470703 3.5186205,3.5186205 0 0 1 -0.240234,0.439453 3.5186205,3.5186205 0 0 1 -0.300781,0.402344 3.5186205,3.5186205 0 0 1 -0.355469,0.355469 3.5186205,3.5186205 0 0 1 -0.402344,0.300781 3.5186205,3.5186205 0 0 1 -0.439453,0.240234 3.5186205,3.5186205 0 0 1 -0.470703,0.175781 3.5186205,3.5186205 0 0 1 -0.4902344,0.107422 3.5186205,3.5186205 0 0 1 -0.5019531,0.03516 3.5186205,3.5186205 0 0 1 -0.5,-0.03516 A 3.5186205,3.5186205 0 0 1 3.4995764,15.835747 3.5186205,3.5186205 0 0 1 3.0288732,15.659966 3.5186205,3.5186205 0 0 1 2.587467,15.419732 3.5186205,3.5186205 0 0 1 2.1851232,15.118951 3.5186205,3.5186205 0 0 1 1.8316076,14.763482 3.5186205,3.5186205 0 0 1 1.5308264,14.361138 3.5186205,3.5186205 0 0 1 1.2886389,13.921685 3.5186205,3.5186205 0 0 1 1.1148108,13.450982 3.5186205,3.5186205 0 0 1 1.0073889,12.960747 a 3.5186205,3.5186205 0 0 1 -0.035156,-0.501953 3.5186205,3.5186205 0 0 1 0.035156,-0.5 A 3.5186205,3.5186205 0 0 1 1.1148108,11.46856 3.5186205,3.5186205 0 0 1 1.2886389,10.997857 3.5186205,3.5186205 0 0 1 1.5308264,10.556452 3.5186205,3.5186205 0 0 1 1.8316076,10.156061 3.5186205,3.5186205 0 0 1 2.1851232,9.8005917 3.5186205,3.5186205 0 0 1 2.587467,9.4998105 3.5186205,3.5186205 0 0 1 3.0288732,9.2595761 3.5186205,3.5186205 0 0 1 3.4995764,9.0837948 3.5186205,3.5186205 0 0 1 3.9898108,8.976373 a 3.5186205,3.5186205 0 0 1 0.5,-0.035156 z" />
  <g
     id="g1815"
     transform="translate(-0.27510054,6.9447702)"
     inkscape:export-filename="../logo.svg"
     inkscape:export-xdpi="14410.551"
     inkscape:export-ydpi="14410.551">
    <g
       id="g1674"
       transform="translate(7.619271,-2.0306902)">
      <circle
         style="fill:#0366d6;fill-opacity:1;stroke-width:0;stroke-dasharray:none"
         id="path1097"
         cx="12.225821"
         cy="14.314366"
         r="3.5186205" />
      <g
         id="g1666">
        <line
           x1="13.131599"
           y1="13.782709"
           x2="11.320045"
           y2="12.738046"
           id="line86"
           style="fill:#ffffff;stroke-width:0.402568" />
        <path
           d="m 14.037376,15.111183 v -1.610271 a 0.40256776,0.40256776 0 0 0 -0.201283,-0.348221 l -1.408988,-0.805136 a 0.40256776,0.40256776 0 0 0 -0.402567,0 l -1.408987,0.805136 a 0.40256776,0.40256776 0 0 0 -0.201284,0.348221 v 1.610271 a 0.40256776,0.40256776 0 0 0 0.201284,0.348221 l 1.408987,0.805136 a 0.40256776,0.40256776 0 0 0 0.402567,0 l 1.408988,-0.805136 a 0.40256776,0.40256776 0 0 0 0.201283,-0.348221 z"
           id="path88"
           style="fill:#848484;fill-opacity:1;stroke-width:0.402568" />
        <polyline
           points="3.27 6.96 12 12.01 20.73 6.96"
           id="polyline90"
           style="fill:#848484;fill-opacity:1"
           transform="matrix(0.20128388,0,0,0.20128388,9.810415,11.890641)" />
        <line
           x1="12.225821"
           y1="16.33499"
           x2="12.225821"
           y2="14.306047"
           id="line92"
           style="fill:#ffffff;stroke-width:0.402568" />
      </g>
    </g>
    <path
       id="path1772-5"
       style="fill:#000000;fill-opacity:1;stroke-width:0;stroke-dasharray:none"
       d="m 19.844115,8.2084813 a 3.9970775,4.0754333 0 0 0 -3.996094,4.0742177 3.9970775,4.0754333 0 0 0 3.996094,4.076172 3.9970775,4.0754333 0 0 0 3.998047,-4.076172 3.9970775,4.0754333 0 0 0 -3.998047,-4.0742177 z m 0,0.5566406 a 3.5186205,3.5186205 0 0 1 0.173828,0.00391 3.5186205,3.5186205 0 0 1 0.171875,0.013672 3.5186205,3.5186205 0 0 1 0.169922,0.019531 3.5186205,3.5186205 0 0 1 0.171875,0.029297 3.5186205,3.5186205 0 0 1 0.167969,0.039063 3.5186205,3.5186205 0 0 1 0.166016,0.044922 3.5186205,3.5186205 0 0 1 0.164062,0.054687 3.5186205,3.5186205 0 0 1 0.16211,0.0625 3.5186205,3.5186205 0 0 1 0.15625,0.070313 3.5186205,3.5186205 0 0 1 0.154297,0.078125 3.5186205,3.5186205 0 0 1 0.15039,0.083984 3.5186205,3.5186205 0 0 1 0.146485,0.091797 3.5186205,3.5186205 0 0 1 0.140625,0.099609 3.5186205,3.5186205 0 0 1 0.136718,0.1074218 3.5186205,3.5186205 0 0 1 0.13086,0.1132808 3.5186205,3.5186205 0 0 1 0.125,0.119141 3.5186205,3.5186205 0 0 1 0.11914,0.1249996 3.5186205,3.5186205 0 0 1 0.113282,0.1308589 3.5186205,3.5186205 0 0 1 0.105468,0.134766 3.5186205,3.5186205 0 0 1 0.09961,0.142578 3.5186205,3.5186205 0 0 1 0.0918,0.144532 3.5186205,3.5186205 0 0 1 0.08594,0.15039 3.5186205,3.5186205 0 0 1 0.07813,0.154297 3.5186205,3.5186205 0 0 1 0.07031,0.158203 3.5186205,3.5186205 0 0 1 0.06055,0.160156 3.5186205,3.5186205 0 0 1 0.05469,0.164063 3.5186205,3.5186205 0 0 1 0.04687,0.167969 3.5186205,3.5186205 0 0 1 0.03711,0.167968 3.5186205,3.5186205 0 0 1 0.0293,0.169922 3.5186205,3.5186205 0 0 1 0.02149,0.171875 3.5186205,3.5186205 0 0 1 0.01367,0.171875 3.5186205,3.5186205 0 0 1 0.0039,0.171875 3.5186205,3.5186205 0 0 1 -0.03711,0.501953 3.5186205,3.5186205 0 0 1 -0.105468,0.490235 3.5186205,3.5186205 0 0 1 -0.175782,0.470703 3.5186205,3.5186205 0 0 1 -0.240234,0.439453 3.5186205,3.5186205 0 0 1 -0.300781,0.402344 3.5186205,3.5186205 0 0 1 -0.355469,0.355469 3.5186205,3.5186205 0 0 1 -0.402344,0.300781 3.5186205,3.5186205 0 0 1 -0.439453,0.240234 3.5186205,3.5186205 0 0 1 -0.470703,0.175781 3.5186205,3.5186205 0 0 1 -0.490235,0.107422 3.5186205,3.5186205 0 0 1 -0.501953,0.03516 3.5186205,3.5186205 0 0 1 -0.5,-0.03516 3.5186205,3.5186205 0 0 1 -0.490244,-0.107426 3.5186205,3.5186205 0 0 1 -0.470703,-0.175781 3.5186205,3.5186205 0 0 1 -0.441407,-0.240234 3.5186205,3.5186205 0 0 1 -0.402343,-0.300781 3.5186205,3.5186205 0 0 1 -0.353516,-0.355469 3.5186205,3.5186205 0 0 1 -0.300781,-0.402344 3.5186205,3.5186205 0 0 1 -0.242188,-0.439453 3.5186205,3.5186205 0 0 1 -0.173828,-0.470703 3.5186205,3.5186205 0 0 1 -0.107422,-0.490235 3.5186205,3.5186205 0 0 1 -0.03516,-0.501953 3.5186205,3.5186205 0 0 1 0.03516,-0.5 3.5186205,3.5186205 0 0 1 0.107422,-0.490234 3.5186205,3.5186205 0 0 1 0.173828,-0.470703 3.5186205,3.5186205 0 0 1 0.242188,-0.441405 3.5186205,3.5186205 0 0 1 0.300781,-0.4003909 3.5186205,3.5186205 0 0 1 0.353516,-0.3554692 3.5186205,3.5186205 0 0 1 0.402343,-0.3007812 3.5186205,3.5186205 0 0 1 0.441407,-0.2402344 3.5186205,3.5186205 0 0 1 0.470703,-0.1757813 3.5186205,3.5186205 0 0 1 0.490234,-0.1074218 3.5186205,3.5186205 0 0 1 0.5,-0.035156 z" />
  </g>
  <ellipse
     style="fill:#000000;fill-opacity:1;stroke-width:0;stroke-dasharray:none"
     id="path1097-6-3-7"
     cx="13.314833"
     cy="12.089674"
     rx="3.9970775"
     ry="4.0754333" />
  <g
     id="g1650">
    <line
       x1="11.897784"
       y1="4.0396395"
       x2="10.086229"
       y2="2.9949765"
       id="line86-5"
       style="fill:#ffffff;stroke-width:0.402568" />
    <path
       d="M 12.803562,5.3681134 V 3.7578423 A 0.40256776,0.40256776 0 0 0 12.602278,3.4096212 L 11.193291,2.6044857 a 0.40256776,0.40256776 0 0 0 -0.402568,0 L 9.3817355,3.4096212 A 0.40256776,0.40256776 0 0 0 9.1804516,3.7578423 v 1.6102711 a 0.40256776,0.40256776 0 0 0 0.2012839,0.3482212 l 1.4089875,0.805135 a 0.40256776,0.40256776 0 0 0 0.402568,0 l 1.408987,-0.805135 a 0.40256776,0.40256776 0 0 0 0.201284,-0.3482212 z"
       id="path88-3"
       style="fill:#848484;stroke-width:0.402568;fill-opacity:1" />
    <polyline
       points="3.27 6.96 12 12.01 20.73 6.96"
       id="polyline90-5"
       style="fill:#848484;fill-opacity:1"
       transform="matrix(0.20128388,0,0,0.20128388,8.5766,2.1475713)" />
    <line
       x1="10.992006"
       y1="6.5919189"
       x2="10.992006"
       y2="4.5629778"
       id="line92-6"
       style="fill:#ffffff;stroke-width:0.402568" />
  </g>
  <line
     x1="22.325211"
     y1="5.5574846"
     x2="20.513655"
     y2="4.5128212"
     id="line86-5-2"
     style="fill:#ffffff;stroke-width:0.402568" />
  <path
     d="M 17.954177,5.3351351 V 3.724864 A 0.40256776,0.40256776 0 0 0 17.752893,3.3766429 L 16.343905,2.5715074 a 0.40256776,0.40256776 0 0 0 -0.402567,0 L 14.532351,3.3766429 A 0.40256776,0.40256776 0 0 0 14.331067,3.724864 v 1.6102711 a 0.40256776,0.40256776 0 0 0 0.201284,0.3482212 l 1.408987,0.805135 a 0.40256776,0.40256776 0 0 0 0.402567,0 l 1.408988,-0.805135 a 0.40256776,0.40256776 0 0 0 0.201284,-0.3482212 z"
     id="path88-3-9"
     style="fill:#848484;stroke-width:0.402568;fill-opacity:1" />
  <polyline
     points="3.27 6.96 12 12.01 20.73 6.96"
     id="polyline90-5-1"
     style="fill:#848484;fill-opacity:1"
     transform="matrix(0.20128388,0,0,0.20128388,18.643036,1.2742888)" />
  <line
     x1="19.539534"
     y1="5.9860597"
     x2="19.539534"
     y2="3.9571183"
     id="line92-6-2"
     style="fill:#ffffff;stroke-width:0.402568" />
</svg>
