<?xml version="1.0" encoding="UTF-8" standalone="no"?>
<svg
   width="7.9941425"
   height="8.1503916"
   viewBox="0 0 7.9941425 8.1503916"
   fill="none"
   stroke="currentColor"
   stroke-width="2"
   stroke-linecap="round"
   stroke-linejoin="round"
   class="feather feather-package"
   version="1.1"
   id="svg94"
   xmlns="http://www.w3.org/2000/svg"
   xmlns:svg="http://www.w3.org/2000/svg">
  <defs
     id="defs98" />
  <g
     id="g1815"
     transform="translate(-15.84802,-8.2084805)">
    <g
       id="g1674"
       transform="translate(7.619271,-2.0306902)">
      <circle
         style="fill:#0366d6;fill-opacity:1;stroke-width:0;stroke-dasharray:none"
         id="path1097"
         cx="12.225821"
         cy="14.314366"
         r="3.5186205" />
      <g
         id="g1666">
        <line
           x1="13.131599"
           y1="13.782709"
           x2="11.320045"
           y2="12.738046"
           id="line86"
           style="fill:#ffffff;stroke-width:0.402568" />
        <path
           d="m 14.037376,15.111183 v -1.610271 a 0.40256776,0.40256776 0 0 0 -0.201283,-0.348221 l -1.408988,-0.805136 a 0.40256776,0.40256776 0 0 0 -0.402567,0 l -1.408987,0.805136 a 0.40256776,0.40256776 0 0 0 -0.201284,0.348221 v 1.610271 a 0.40256776,0.40256776 0 0 0 0.201284,0.348221 l 1.408987,0.805136 a 0.40256776,0.40256776 0 0 0 0.402567,0 l 1.408988,-0.805136 a 0.40256776,0.40256776 0 0 0 0.201283,-0.348221 z"
           id="path88"
           style="fill:#848484;fill-opacity:1;stroke-width:0.402568" />
        <polyline
           points="3.27 6.96 12 12.01 20.73 6.96"
           id="polyline90"
           style="fill:#848484;fill-opacity:1"
           transform="matrix(0.20128388,0,0,0.20128388,9.810415,11.890641)" />
        <line
           x1="12.225821"
           y1="16.33499"
           x2="12.225821"
           y2="14.306047"
           id="line92"
           style="fill:#ffffff;stroke-width:0.402568" />
      </g>
    </g>
    <path
       id="path1772-5"
       style="fill:#000000;fill-opacity:1;stroke-width:0;stroke-dasharray:none"
       d="m 19.844115,8.2084813 a 3.9970775,4.0754333 0 0 0 -3.996094,4.0742177 3.9970775,4.0754333 0 0 0 3.996094,4.076172 3.9970775,4.0754333 0 0 0 3.998047,-4.076172 3.9970775,4.0754333 0 0 0 -3.998047,-4.0742177 z m 0,0.5566406 a 3.5186205,3.5186205 0 0 1 0.173828,0.00391 3.5186205,3.5186205 0 0 1 0.171875,0.013672 3.5186205,3.5186205 0 0 1 0.169922,0.019531 3.5186205,3.5186205 0 0 1 0.171875,0.029297 3.5186205,3.5186205 0 0 1 0.167969,0.039063 3.5186205,3.5186205 0 0 1 0.166016,0.044922 3.5186205,3.5186205 0 0 1 0.164062,0.054687 3.5186205,3.5186205 0 0 1 0.16211,0.0625 3.5186205,3.5186205 0 0 1 0.15625,0.070313 3.5186205,3.5186205 0 0 1 0.154297,0.078125 3.5186205,3.5186205 0 0 1 0.15039,0.083984 3.5186205,3.5186205 0 0 1 0.146485,0.091797 3.5186205,3.5186205 0 0 1 0.140625,0.099609 3.5186205,3.5186205 0 0 1 0.136718,0.1074218 3.5186205,3.5186205 0 0 1 0.13086,0.1132808 3.5186205,3.5186205 0 0 1 0.125,0.119141 3.5186205,3.5186205 0 0 1 0.11914,0.1249996 3.5186205,3.5186205 0 0 1 0.113282,0.1308589 3.5186205,3.5186205 0 0 1 0.105468,0.134766 3.5186205,3.5186205 0 0 1 0.09961,0.142578 3.5186205,3.5186205 0 0 1 0.0918,0.144532 3.5186205,3.5186205 0 0 1 0.08594,0.15039 3.5186205,3.5186205 0 0 1 0.07813,0.154297 3.5186205,3.5186205 0 0 1 0.07031,0.158203 3.5186205,3.5186205 0 0 1 0.06055,0.160156 3.5186205,3.5186205 0 0 1 0.05469,0.164063 3.5186205,3.5186205 0 0 1 0.04687,0.167969 3.5186205,3.5186205 0 0 1 0.03711,0.167968 3.5186205,3.5186205 0 0 1 0.0293,0.169922 3.5186205,3.5186205 0 0 1 0.02149,0.171875 3.5186205,3.5186205 0 0 1 0.01367,0.171875 3.5186205,3.5186205 0 0 1 0.0039,0.171875 3.5186205,3.5186205 0 0 1 -0.03711,0.501953 3.5186205,3.5186205 0 0 1 -0.105468,0.490235 3.5186205,3.5186205 0 0 1 -0.175782,0.470703 3.5186205,3.5186205 0 0 1 -0.240234,0.439453 3.5186205,3.5186205 0 0 1 -0.300781,0.402344 3.5186205,3.5186205 0 0 1 -0.355469,0.355469 3.5186205,3.5186205 0 0 1 -0.402344,0.300781 3.5186205,3.5186205 0 0 1 -0.439453,0.240234 3.5186205,3.5186205 0 0 1 -0.470703,0.175781 3.5186205,3.5186205 0 0 1 -0.490235,0.107422 3.5186205,3.5186205 0 0 1 -0.501953,0.03516 3.5186205,3.5186205 0 0 1 -0.5,-0.03516 3.5186205,3.5186205 0 0 1 -0.490244,-0.107426 3.5186205,3.5186205 0 0 1 -0.470703,-0.175781 3.5186205,3.5186205 0 0 1 -0.441407,-0.240234 3.5186205,3.5186205 0 0 1 -0.402343,-0.300781 3.5186205,3.5186205 0 0 1 -0.353516,-0.355469 3.5186205,3.5186205 0 0 1 -0.300781,-0.402344 3.5186205,3.5186205 0 0 1 -0.242188,-0.439453 3.5186205,3.5186205 0 0 1 -0.173828,-0.470703 3.5186205,3.5186205 0 0 1 -0.107422,-0.490235 3.5186205,3.5186205 0 0 1 -0.03516,-0.501953 3.5186205,3.5186205 0 0 1 0.03516,-0.5 3.5186205,3.5186205 0 0 1 0.107422,-0.490234 3.5186205,3.5186205 0 0 1 0.173828,-0.470703 3.5186205,3.5186205 0 0 1 0.242188,-0.441405 3.5186205,3.5186205 0 0 1 0.300781,-0.4003909 3.5186205,3.5186205 0 0 1 0.353516,-0.3554692 3.5186205,3.5186205 0 0 1 0.402343,-0.3007812 3.5186205,3.5186205 0 0 1 0.441407,-0.2402344 3.5186205,3.5186205 0 0 1 0.470703,-0.1757813 3.5186205,3.5186205 0 0 1 0.490234,-0.1074218 3.5186205,3.5186205 0 0 1 0.5,-0.035156 z" />
  </g>
  <ellipse
     style="fill:#000000;fill-opacity:1;stroke-width:0;stroke-dasharray:none"
     id="path1097-6-3-7"
     cx="-2.2580872"
     cy="-3.0635767"
     rx="3.9970775"
     ry="4.0754333" />
</svg>
